<svg t="1674917953117" class="icon" viewBox="0 0 1024 1024" version="1.1" xmlns="http://www.w3.org/2000/svg" p-id="1406" width="200" height="200"><path d="M962.67377778 331.20711111l-288.88177778-41.984L544.65422222 27.42044445c-3.52711111-7.168-9.32977778-12.97066667-16.49777777-16.49777778-17.97688889-8.87466667-39.82222222-1.47911111-48.81066667 16.49777778L350.208 289.22311111l-288.88177778 41.984c-7.96444445 1.13777778-15.24622222 4.89244445-20.82133333 10.58133334-13.99466667 14.44977778-13.76711111 37.43288889 0.68266666 51.54133333l209.00977778 203.776-49.37955555 287.744c-1.36533333 7.85066667-0.11377778 16.04266667 3.64088889 23.09688889 9.32977778 17.74933333 31.40266667 24.68977778 49.152 15.24622222L512 787.34222222l258.38933333 135.85066667c7.05422222 3.75466667 15.24622222 5.00622222 23.09688889 3.64088889 19.79733333-3.41333333 33.10933333-22.18666667 29.696-41.984l-49.37955555-287.744 209.00977778-203.776c5.68888889-5.57511111 9.44355555-12.85688889 10.58133333-20.82133333 3.072-19.91111111-10.80888889-38.34311111-30.72-41.30133334z" fill="#d81e06" p-id="1407"></path></svg>